<?xml version="1.0" encoding="utf-8"?>
<!-- Generator: Adobe Illustrator 25.2.3, SVG Export Plug-In . SVG Version: 6.00 Build 0)  -->
<svg version="1.1" id="图层_1" xmlns="http://www.w3.org/2000/svg" xmlns:xlink="http://www.w3.org/1999/xlink" x="0px" y="0px"
	 viewBox="0 0 200 200" style="enable-background:new 0 0 200 200;" xml:space="preserve">
<style type="text/css">
	.st0{opacity:0.8;fill:#FFFFFF;}
</style>
<path class="st0" d="M104.2,110.1c0.4-6.7,3.7-12.5,8.6-16.7c5.2-4.3,11.7-6.6,18.4-6.6c7.1,0,13.6,2.5,18.4,6.6
	c4.9,4.2,8.2,10.1,8.6,16.7c0.4,6.9-2.4,13.2-7.2,17.9c-5.3,5.1-12.4,7.9-19.8,7.8c-7.4,0.1-14.5-2.7-19.8-7.8
	C106.6,123.3,103.9,117,104.2,110.1 M61.2,123.6c0.1,2.6,0.9,7.7,2.1,11.7c2.7,8.5,7.2,16.4,13.3,23c6.5,7.1,14.4,12.8,23.2,16.7
	c9.6,4.2,20,6.4,30.5,6.3c10.5,0,20.9-2.2,30.5-6.4c8.8-3.9,16.7-9.6,23.2-16.8c6-6.6,10.6-14.5,13.3-23c2.6-8.3,3.3-17,2.1-25.6
	c-1.2-8.2-4.1-16.1-8.5-23.2c-4.1-6.6-9.3-12.3-15.4-17h0l-62.5-48l-0.2-0.1c-4.1-3.1-11-3.1-15.5,0c-4.6,3.2-5.1,8.5-1,11.8l0,0
	l26,21.2L43,54.2h-0.1c-6.6,0-12.9,4.3-14.1,9.8c-1.3,5.5,3.2,10.1,10,10.2v0L79,74.1L7.2,129.2l-0.3,0.2c-6.8,5.2-9,13.8-4.7,19.3
	c4.3,5.6,13.5,5.6,20.4,0l39.2-32.1C61.8,116.7,61.2,121,61.2,123.6L61.2,123.6z M162,138.1c-8.1,8.2-19.4,12.9-31.6,12.9
	c-12.3,0-23.6-4.6-31.6-12.8c-3.8-3.8-6.8-8.4-8.6-13.5c-3.5-9.7-2.6-20.3,2.4-29.3c2.4-4.4,5.7-8.3,9.6-11.4
	c7.9-6.4,17.8-9.9,28.3-9.9c10.5,0,20.5,3.4,28.3,9.8c4,3.3,7.2,7.1,9.6,11.4c2.4,4.4,3.9,9.2,4.3,14.2c0.4,5.1-0.2,10.3-2,15.1
	C168.8,129.6,165.8,134.3,162,138.1"/>
</svg>
