<?xml version="1.0" standalone="no"?><!DOCTYPE svg PUBLIC "-//W3C//DTD SVG 1.1//EN" "http://www.w3.org/Graphics/SVG/1.1/DTD/svg11.dtd"><svg t="1588679055408" class="icon" viewBox="0 0 1024 1024" version="1.1" xmlns="http://www.w3.org/2000/svg" p-id="17820" xmlns:xlink="http://www.w3.org/1999/xlink" width="200" height="200"><defs><style type="text/css"></style></defs><path d="M552.704 495.616l126.165333-126.165333L271.36 140.416c-27.008-14.592-52.309333-16.64-74.496-0.682667l355.84 355.882667z m147.669333 147.712l131.157334-73.770667c25.6-14.336 39.637333-34.645333 39.637333-57.173333 0-22.485333-14.037333-42.837333-39.594667-57.173333l-118.741333-66.688-133.674667 133.632 121.216 121.173333zM174.933333 170.752c-2.730667 8.405333-4.266667 17.792-4.266666 28.074667v627.413333c0 16.256 3.584 30.250667 10.069333 41.386667l345.472-345.514667L174.933333 170.752z m377.770667 377.813333L209.152 892.16c6.570667 2.517333 13.653333 3.84 21.12 3.84 13.312 0 27.178667-3.925333 41.301333-11.776l394.88-221.738667-113.749333-113.92z" p-id="17821"></path></svg>