<?xml version="1.0" encoding="utf-8"?>
<!-- Generator: Adobe Illustrator 24.1.1, SVG Export Plug-In . SVG Version: 6.00 Build 0)  -->
<svg version="1.1" id="图层_1" xmlns="http://www.w3.org/2000/svg" xmlns:xlink="http://www.w3.org/1999/xlink" x="0px" y="0px"
	 viewBox="0 0 200 200" style="enable-background:new 0 0 200 200;" xml:space="preserve">
<style type="text/css">
	.st0{opacity:0.8;enable-background:new    ;}
</style>
<path class="st0" d="M182,85.8l-34.4-34.4l-0.1-0.1l-27.4-27.4c-2.8-2.8-8.3-5.8-12.9-5.8c-4.1,0-7.9,0.9-10.3,2.3L48.7,44.5
	l-3.2,1.7l-1.4,3L19.9,99.6c-0.2,0.5-2.3,4.9-2.3,8.2c0.1,5.2,2.2,10.2,5.8,14l27.5,27.5l33.3,33.3h69.2V154H182V85.8z M98.6,23.6
	c2-1.2,5.2-1.9,8.6-1.9s8.1,2.5,10.4,4.8L137.1,46h-0.7c-1.6-0.2-3.2-0.3-4.9-0.3h-77L98.6,23.6z M149.9,179H85.7l-32.3-32.3
	c-3.9-3.9-4.8-5.5-4.8-13.5V51.7l101.2,101.2V179H149.9z"/>
</svg>
