<?xml version="1.0" encoding="utf-8"?>
<!-- Generator: Adobe Illustrator 24.1.1, SVG Export Plug-In . SVG Version: 6.00 Build 0)  -->
<svg version="1.1" id="Layer_1" xmlns="http://www.w3.org/2000/svg" xmlns:xlink="http://www.w3.org/1999/xlink" x="0px" y="0px"
	 viewBox="0 0 299.2 299.2" style="enable-background:new 0 0 299.2 299.2;" xml:space="preserve">
<style type="text/css">
	.st0{opacity:0.8;}
	.st1{fill:#FFFFFF;}
</style>
<g id="XMLID_106_" class="st0">
	<path id="XMLID_107_" class="st1" d="M45,26.6c-2.3,0-3.9,1.8-3.7,4.1l19.1,213.8c0.2,2.3,2.1,4.6,4.3,5.2l80.9,22.5
		c2.2,0.6,5.7,0.6,7.9,0l81.1-22.5c2.2-0.6,4.1-2.9,4.3-5.2L258,30.7c0.2-2.3-1.5-4.1-3.7-4.1H45z M217.4,75.6
		c-0.2,2-0.5,5.5-0.7,7.7l-0.5,5.6c-0.2,2.3-0.5,5.5-0.6,7.2c-0.2,1.7-0.3,3.1-0.3,3.1c0,0-1.9,0-4.2,0h-57.4c-2.3,0-4.1,0-4.2,0
		c0,0-1.9,0-4.2,0h-30.2c-2.3,0-3.9,1.8-3.7,4.1l1.8,19.7c0.2,2.3,2.2,4.1,4.5,4.1h27.7c2.3,0,4.1,0,4.2,0c0,0,1.9,0,4.2,0h47.6
		c2.3,0,5.8,0,7.8,0c2,0,3.5,1.6,3.3,3.7c-0.2,2-0.5,5.5-0.7,7.7l-5.7,63.5c-0.2,2.3-0.5,5.1-0.6,6.4c-0.1,1.3-2,2.8-4.2,3.4
		L153.6,225c-2.2,0.6-4,1.1-4,1.1c0,0-1.8-0.5-4-1.1l-47.8-13.3c-2.2-0.6-4.1-2.9-4.3-5.2L90.3,172c-0.2-2.3,1.5-4.1,3.7-4.1h4.4
		c2.3,0,6,0,8.2,0h6.5c2.3,0,4.3,1.8,4.5,4.1l1.2,13.5c0.2,2.3,2.2,4.6,4.3,5.2l22.4,6c2.2,0.6,4,1.1,4,1.1s1.8-0.5,4-1.1l22.4-6.1
		c2.2-0.6,4.1-2.9,4.3-5.2l2.4-27.1c0.2-2.3-1.5-4.1-3.7-4.1h-25.2c-2.3,0-4.1,0-4.2,0c0,0-1.9,0-4.2,0H92.8c-2.3,0-4.3-1.8-4.5-4.1
		l-6-66.8c-0.2-2.3-0.5-5.7-0.7-7.7c-0.2-2,1.5-3.7,3.8-3.7h60c2.3,0,4.1,0,4.2,0c0,0,1.9,0,4.2,0h59.9
		C215.9,72,217.6,73.6,217.4,75.6z"/>
</g>
</svg>
