<?xml version="1.0" encoding="utf-8"?>
<!-- Generator: Adobe Illustrator 24.1.1, SVG Export Plug-In . SVG Version: 6.00 Build 0)  -->
<svg version="1.1" id="图层_1" xmlns="http://www.w3.org/2000/svg" xmlns:xlink="http://www.w3.org/1999/xlink" x="0px" y="0px"
	 viewBox="0 0 200 200" style="enable-background:new 0 0 200 200;" xml:space="preserve">
<style type="text/css">
	.st0{opacity:0.8;fill:#FFFFFF;}
</style>
<path class="st0" d="M175,100c0-16.9-5.6-32.6-16.8-46.9v93.8C169.4,133.1,175,117.4,175,100z M146.9,158.2H53.1
	c5.7,4.7,13.2,8.7,22.3,11.9S92.7,175,100,175s15.5-1.6,24.6-4.9C133.7,166.9,141.2,162.9,146.9,158.2z M91.8,141.8L58.2,75v66.8
	H91.8L91.8,141.8z M141.8,75l-33.6,66.8h33.6V75z M100,121.1l31.3-62.9H68.8L100,121.1z M146.9,41.8C133.1,30.6,117.4,25,100,25
	s-33.1,5.6-46.9,16.8H146.9z M41.8,146.9V53.1C30.6,67.4,25,83.1,25,100C25,117.4,30.6,133.1,41.8,146.9L41.8,146.9z M191.8,100
	c0,25.3-9,46.9-27,64.8c-18,18-39.6,27-64.8,27s-46.9-9-64.8-27c-18-18-27-39.6-27-64.8s9-46.9,27-64.8c18-18,39.6-27,64.8-27
	s46.9,9,64.8,27C182.8,53.1,191.8,74.7,191.8,100L191.8,100z"/>
</svg>
