<?xml version="1.0" encoding="utf-8"?>
<!-- Generator: Adobe Illustrator 25.2.3, SVG Export Plug-In . SVG Version: 6.00 Build 0)  -->
<svg version="1.1" id="图层_1" xmlns="http://www.w3.org/2000/svg" xmlns:xlink="http://www.w3.org/1999/xlink" x="0px" y="0px"
	 viewBox="0 0 200 200" style="enable-background:new 0 0 200 200;" xml:space="preserve">
<path d="M132.3,72.2c2.3,10.1,5,19.4,6.6,28.8c4.1,24.5-13.7,39.8-30.3,42.8c-19.7,3.5-38.9-9.8-43.5-30.1
	C59.1,87,72,62.9,97.5,53.1c1.6-0.6,3.1-1.3,5.3-2.1c-0.9-3.4-1.7-6.9-2.8-10.3C93,16.7,115.7-5.2,139.4,1.1
	c6.5,1.7,12.7,5.3,18.3,9.1c5.7,3.8,6.2,10.9,2.2,16c-3.9,5-10.7,5.5-16.3,1.7c-2.9-2-6-3.8-9.3-4.7c-7.3-2.1-12.8,2.5-12.1,10.1
	c0.4,4.4,1.8,8.8,3,13.1c0.2,0.9,1.7,1.9,2.7,2c45,2.8,83.3,60.3,47.4,114.1c-27.5,41.2-88,49.8-128.1,18.7
	C-9.3,137.2,1,49.9,66.3,20.3c3.4-1.5,7.3-2.6,10.9-2.5c5,0.2,8.6,4.5,9.4,9.5c0.8,4.9-1.7,9.3-6.4,11.8c-6.5,3.5-13.7,6.4-19.4,11
	c-23.5,19-32.5,43.8-25.3,73.1c7,28.6,25.4,47.3,54.8,52.9c27.2,5.2,59-5.6,71.9-36.3c10.2-24.3,3.3-50.7-22.4-64.8
	C137.5,73.8,135,73.2,132.3,72.2z M108.8,73.2c-7,2.1-12.6,5.6-16.8,10.9c-6.8,8.5-7.5,22.6-1.7,31c3.6,5.2,9.2,7.4,15.1,6
	c6.1-1.5,9.6-5.3,10.3-11.9c0.3-3.2,0.5-6.6-0.2-9.7C113.5,90.9,111.2,82.3,108.8,73.2L108.8,73.2z"/>
</svg>
