<?xml version="1.0" encoding="utf-8"?>
<!-- Generator: Adobe Illustrator 25.2.3, SVG Export Plug-In . SVG Version: 6.00 Build 0)  -->
<svg version="1.1" id="图层_1" xmlns="http://www.w3.org/2000/svg" xmlns:xlink="http://www.w3.org/1999/xlink" x="0px" y="0px"
	 viewBox="0 0 200 200" style="enable-background:new 0 0 200 200;" xml:space="preserve">
<style type="text/css">
	.st0{opacity:0.8;fill:#231815;enable-background:new    ;}
</style>
<path class="st0" d="M168.2,27.4c39.9,37.9,41.6,100.9,3.7,140.8c-18.8,19.8-45,31.1-72.3,31.1c-55,0-99.6-44.6-99.6-99.6
	c0-27.3,11.2-53.5,31.1-72.3l19.8,21.5C37,62.1,29.2,80.5,29.2,99.6c0,12.5,3.2,24.2,8.9,34.3l39.4-38l18.2-40.5v62.8L57.3,156
	c12.2,9.2,27.1,14.1,42.3,14.1c15.3,0,30.2-4.9,42.4-14.2l-38.3-37.6V55.5L121.8,96l39.3,37.9c5.8-10.5,8.9-22.3,8.9-34.3
	c0-19.2-7.8-37.5-21.6-50.8L168.2,27.4L168.2,27.4z M99.6,29.2c-15.9,0-31.4,5.4-43.8,15.3L36,23C53.9,8.1,76.4,0,99.6,0
	c24.2,0,46.4,8.6,63.7,22.9l-19.8,21.5C131,34.5,115.5,29.1,99.6,29.2L99.6,29.2z"/>
</svg>
