<?xml version="1.0" standalone="no"?><!DOCTYPE svg PUBLIC "-//W3C//DTD SVG 1.1//EN" "http://www.w3.org/Graphics/SVG/1.1/DTD/svg11.dtd"><svg t="1588664249571" class="icon" viewBox="0 0 1024 1024" version="1.1" xmlns="http://www.w3.org/2000/svg" p-id="4405" xmlns:xlink="http://www.w3.org/1999/xlink" width="200" height="200"><defs><style type="text/css"></style></defs><path d="M708.693333 646.4c-19.626667 0-35.84-15.786667-35.84-35.413333s16.213333-34.986667 35.84-34.986667c19.626667 0 35.84 15.36 35.84 34.986667 0 19.626667-16.213333 35.413333-35.84 35.413333m-392.533333 0c-19.626667 0-35.84-15.786667-35.84-35.413333 0-19.626667 16.213333-34.986667 35.84-34.986667 19.626667 0 35.413333 15.36 35.413333 34.986667 0 19.626667-15.786667 35.413333-35.413333 35.413333m405.333333-213.76l71.253334-122.88c3.84-7.253333 1.28-16.213333-5.546667-20.053333-7.253333-4.266667-16.213333-1.706667-19.2 5.546666l-72.96 124.16A433.066667 433.066667 0 0 0 512 380.16c-65.28 0-128 14.08-182.186667 38.826667L257.706667 294.826667a14.250667 14.250667 0 0 0-20.053334-5.546667c-7.253333 3.84-9.386667 12.8-5.546666 20.053333l70.826666 122.88C181.333333 498.773333 97.706667 622.08 85.333333 768h853.333334c-11.946667-145.493333-95.146667-268.8-217.173334-335.36z" p-id="4406"></path></svg>