<?xml version="1.0" standalone="no"?><!DOCTYPE svg PUBLIC "-//W3C//DTD SVG 1.1//EN" "http://www.w3.org/Graphics/SVG/1.1/DTD/svg11.dtd"><svg t="1588667232517" class="icon" viewBox="0 0 1024 1024" version="1.1" xmlns="http://www.w3.org/2000/svg" p-id="14448" xmlns:xlink="http://www.w3.org/1999/xlink" width="200" height="200"><defs><style type="text/css"></style></defs><path d="M718.4 0H305.6C139.2 0 4.8 131.2 0 296v432C4.8 892.8 139.2 1024 305.6 1024H720c166.4 0 304-137.6 304-305.6V305.6C1024 137.6 886.4 0 718.4 0z m203.2 718.4c0 112-91.2 201.6-201.6 201.6H305.6c-112 0-201.6-91.2-201.6-201.6V305.6c0-112 91.2-201.6 201.6-201.6H720c112 0 201.6 91.2 201.6 201.6v412.8zM520 256C374.4 256 256 374.4 256 520S374.4 784 520 784 784 665.6 784 520 665.6 256 520 256z m0 425.6c-89.6 0-161.6-72-161.6-161.6s72-161.6 161.6-161.6 161.6 72 161.6 161.6-72 161.6-161.6 161.6z" fill="#343434" p-id="14449"></path><path d="M760 232m-56 0a56 56 0 1 0 112 0 56 56 0 1 0-112 0Z" fill="#343434" p-id="14450"></path></svg>
