<?xml version="1.0" encoding="utf-8"?>
<!-- Generator: Adobe Illustrator 24.1.1, SVG Export Plug-In . SVG Version: 6.00 Build 0)  -->
<svg version="1.1" id="图层_1" xmlns="http://www.w3.org/2000/svg" xmlns:xlink="http://www.w3.org/1999/xlink" x="0px" y="0px"
	 viewBox="0 0 200 200" style="enable-background:new 0 0 200 200;" xml:space="preserve">
<style type="text/css">
	.st0{opacity:0.8;fill:#FFFFFF;}
</style>
<path class="st0" d="M126.2,117.4c3-2,7.2-3.8,7.2-3.8s-11.8,2.1-23.6,3.1c-14.4,1.2-29.9,1.4-37.7,0.4c-18.4-2.4,10.1-9.2,10.1-9.2
	s-11-0.7-24.7,5.8C41.5,121.5,97.3,125,126.2,117.4z M100.1,107.6c-5.8-13.1-25.4-24.5,0-44.6c31.7-25,15.4-41.3,15.4-41.3
	c6.6,25.9-23.1,33.7-33.9,49.7C74.3,82.4,85.2,94.2,100.1,107.6L100.1,107.6z M135.1,53.7c0,0-53.6,13.4-28,42.9
	c7.6,8.7-2,16.5-2,16.5s19.2-9.9,10.4-22.3C107.3,79.2,101,73.5,135.1,53.7L135.1,53.7z M133.3,136.4c-0.2,0.3-0.4,0.6-0.6,0.8
	c39.3-10.3,24.8-36.4,6.1-29.8c-1,0.4-1.9,1-2.5,1.9c1.1-0.4,2.2-0.7,3.4-0.9C149.1,106.5,162.7,121.2,133.3,136.4z M147.7,155.5
	c0,0,4.4,3.6-4.9,6.5c-17.7,5.4-73.7,7-89.2,0.2c-5.6-2.4,4.9-5.8,8.2-6.5c3.4-0.7,5.4-0.6,5.4-0.6c-6.2-4.4-40.2,8.6-17.3,12.3
	C112.5,177.5,163.9,162.8,147.7,155.5z M79.3,142.8c-24.1,6.7,14.7,20.6,45.3,7.5c-3-1.2-5.9-2.6-8.6-4.2c-13.7,2.6-20,2.8-32.4,1.4
	C73.3,146.3,79.3,142.8,79.3,142.8L79.3,142.8z M134.3,172.6c-24.1,4.5-53.8,4-71.4,1.1c0,0,3.6,3,22.1,4.2
	c28.2,1.8,71.5-1,72.5-14.3C157.6,163.5,155.7,168.5,134.3,172.6z M121,129.7c-18.1,3.5-28.6,3.4-41.9,2c-10.2-1.1-3.5-6-3.5-6
	c-26.6,8.8,14.7,18.8,51.9,7.9C125,132.7,122.8,131.4,121,129.7z"/>
</svg>
