<?xml version="1.0" standalone="no"?><!DOCTYPE svg PUBLIC "-//W3C//DTD SVG 1.1//EN" "http://www.w3.org/Graphics/SVG/1.1/DTD/svg11.dtd"><svg t="1588668482112" class="icon" viewBox="0 0 1024 1024" version="1.1" xmlns="http://www.w3.org/2000/svg" p-id="17142" xmlns:xlink="http://www.w3.org/1999/xlink" width="200" height="200"><defs><style type="text/css"></style></defs><path d="M852.7 592.5c-6.3-16.8-12.7-33.5-19.3-50.2-0.5-1.3-1-2.6-1.5-3.8-0.7-1.8-1.4-3.6-2.2-5.4-1.9-4.7-3.8-9.4-5.7-14.2-0.6-1.6-1.3-3.1-1.9-4.7-1.8-4.4-3.6-8.7-5.4-13.1-0.8-1.9-1.6-3.9-2.4-5.8-2-4.6-3.9-9.2-5.9-13.9l-1.8-4.2c-2-4.6-4-9.3-6-13.9-0.7-1.7-1.5-3.3-2.2-5-2.4-5.4-4.8-10.8-7.2-16.1 1-12.1 1.6-24.2 1.6-36.4C792.8 216.6 696 63.3 512 63.3S230.9 216.7 230.9 405.8c0 11.5 0.5 22.9 1.4 34.1-0.2 0.3-0.3 0.7-0.5 1l-7.5 16.8c-0.3 0.8-0.7 1.5-1 2.3-5.1 11.6-10 23.2-14.9 34.8l-1.8 4.2c-2 4.7-3.9 9.4-5.9 14.1-0.5 1.2-1 2.5-1.5 3.7-2 4.9-4 9.8-5.9 14.7-1 2.5-2 5.1-3 7.6-0.4 0.9-0.7 1.8-1.1 2.7-6.7 16.9-13.2 33.8-19.5 50.9-38.7 105-40.4 200-27 207 9.6 5 44.6-31.7 77.9-91.1 11.1 70.6 40.3 132.2 89 175.9-47.4 13.7-79.6 34.1-79.6 51 0 27 74.4 24 174.8 23 26.4-0.1 52.8-2.1 78.9-6.1 9.1 0.6 18.4 0.9 27.9 0.9 10.3 0 20.4-0.4 30.1-1.1 25.1 3.6 50.5 5.5 75.9 5.6 100.3 1 174.6 4 174.6-22.8 0-16.7-31.8-36.8-78.8-50.4 48.5-43.5 77.7-104.7 88.9-174.9 33.2 58.3 67.7 94.2 77.2 89.2 13.8-6.8 12.1-101.6-26.8-206.4z" fill="#333333" p-id="17143"></path></svg>