<?xml version="1.0" standalone="no"?><!DOCTYPE svg PUBLIC "-//W3C//DTD SVG 1.1//EN" "http://www.w3.org/Graphics/SVG/1.1/DTD/svg11.dtd"><svg t="1588667208374" class="icon" viewBox="0 0 1024 1024" version="1.1" xmlns="http://www.w3.org/2000/svg" p-id="13693" xmlns:xlink="http://www.w3.org/1999/xlink" width="200" height="200"><defs><style type="text/css"></style></defs><path d="M923.20000003 289.59999998c0 354.39999997-232.80000006 609.60000001-575.20000003 620.80000001-144.80000002 11.19999999-244.00000007-32.8-332.79999999-99.19999995 99.20000001 11.19999999 232.80000006-21.59999995 298.39999999-88.80000004-99.20000001 0-155.19999998-55.99999999-188-131.99999999h88.8C125.6 556.79999999 58.40000003 490.40000005 58.40000003 380c21.59999995 11.19999999 44 21.59999995 88.79999994 21.59999997-77.60000002-44-121.59999999-188-66.39999998-276.80000004 99.20000001 110.39999998 220.79999999 210.4 421.60000001 220.80000006-55.99999999-220.79999999 232.80000006-332.80000011 354.40000001-188.00000001 55.99999999-11.19999999 88.80000001-32.8 131.99999999-55.99999997-11.19999999 55.99999999-44 88.80000001-88.80000001 110.40000004 44 0 77.60000002-11.19999999 110.40000001-32.80000004-10.40000001 44-54.40000011 88.80000001-87.20000002 110.39999997z" fill="#2c2c2c" p-id="13694"></path></svg>
