<?xml version="1.0" encoding="utf-8"?>
<!-- Generator: Adobe Illustrator 24.1.1, SVG Export Plug-In . SVG Version: 6.00 Build 0)  -->
<svg version="1.1" id="图层_1" xmlns="http://www.w3.org/2000/svg" xmlns:xlink="http://www.w3.org/1999/xlink" x="0px" y="0px"
	 viewBox="0 0 200 200" style="enable-background:new 0 0 200 200;" xml:space="preserve">
<style type="text/css">
	.st0{opacity:0.8;fill:#FFFFFF;}
</style>
<path class="st0" d="M15.9,100v84.1h168.2V15.9H15.9V100z M151.4,93.3c4.3,1.1,7.5,3,10.5,6.1c1.5,1.7,3.8,4.7,4,5.4
	c0.1,0.2-7.3,5.1-11.7,7.9c-0.2,0.1-0.8-0.6-1.5-1.7c-2.2-3.2-4.4-4.5-7.9-4.8c-5.1-0.4-8.4,2.3-8.4,6.8c0,1.1,0.2,2.2,0.7,3.2
	c1.1,2.3,3.2,3.7,9.7,6.5c12,5.2,17.2,8.6,20.4,13.5c3.6,5.4,4.4,14.1,1.9,20.5c-2.7,7-9.3,11.7-18.6,13.3
	c-2.9,0.5-9.7,0.4-12.8-0.1c-6.8-1.2-13.2-4.5-17.1-8.9c-1.5-1.7-4.6-6.2-4.4-6.5c0.5-0.4,1-0.7,1.5-1c0.8-0.4,3.6-2.1,6.3-3.6
	l4.8-2.8l1,1.5c1.4,2.2,4.5,5.1,6.4,6.1c5.4,2.8,12.7,2.4,16.4-0.8c1.5-1.2,2.3-3.1,2.2-5c0-1.9-0.2-2.8-1.3-4.3
	c-1.3-1.9-4-3.4-11.6-6.7c-8.7-3.7-12.4-6.1-15.8-9.7c-2.1-2.4-3.7-5.3-4.6-8.4c-0.6-2.4-0.8-8.3-0.3-10.7c1.8-8.4,8.1-14.2,17.2-16
	C141.7,92.4,148.5,92.6,151.4,93.3L151.4,93.3z M112,100.3l0.1,6.9H90.1v62.2H74.6v-62.2H52.7v-6.8c0-3.7,0.1-6.9,0.2-6.9
	c0.1-0.1,13.4-0.2,29.6-0.1l29.4,0.1L112,100.3z"/>
</svg>
